<svg id="bus_n_int" xmlns="http://www.w3.org/2000/svg" viewBox="0 0 495.83 463.16"><defs><style>.cls-1{fill:#546e92;}.cls-2{fill:#353436;}.cls-3{fill:#f6f6fb;}</style></defs><title>LBI_Logo</title><path class="cls-1" d="M735.14,434.54A161.82,161.82,0,1,0,674,478.18l73.38,29.23Z" transform="translate(-364.08 -164.42)"/><path class="cls-2" d="M820.84,201.59a45.27,45.27,0,0,0-8.38-18.6,44.09,44.09,0,0,0-15.74-12.42,61.25,61.25,0,0,0-18-5.29c-12.07-1.67-23.8-.71-35.16,1.05-19.95,3.39-38.91,9.61-57.25,17,2,1,4,2.1,6,3.2q9.9-3.09,19.94-5.53a209.11,209.11,0,0,1,32.49-5.28c10.82-.78,21.71-.42,31.68,1.95S795,185,799.58,192.27s5.1,16.67,3.25,26.21-5.93,19.16-10.77,28.37c-9.95,18.45-23.21,35.58-37.54,51.68A532.78,532.78,0,0,1,708.06,344c-8.13,7.23-16.62,14.06-25.14,20.86s-17.27,13.31-26.1,19.7q-26.55,19.12-54.73,35.71a538.48,538.48,0,0,1-57.89,29.62c-19.82,8.47-40.26,15.62-60.9,19.2-10.27,1.65-20.63,2.47-30.3,1.23s-18.32-4.75-23.77-11.35-7.33-16.41-6.44-26.58,4-20.63,8.17-30.65a231.39,231.39,0,0,1,23.33-41.33q-.74-3.64-1.31-7.33c-11.47,13.78-22.07,28.41-30.7,44.56-5.29,10.22-9.91,21-12.16,33a61.32,61.32,0,0,0-.69,18.78,44.17,44.17,0,0,0,6.8,18.9,45.36,45.36,0,0,0,15,13.87,64.86,64.86,0,0,0,18.19,7,101.52,101.52,0,0,0,18.45,2.43c3.07.23,6.07.12,9.1.14s6-.28,9-.44a226.64,226.64,0,0,0,34.9-5.75,316.41,316.41,0,0,0,33.41-10,446.57,446.57,0,0,0,63-28.49q15.15-8.24,29.7-17.44c9.7-6.14,19.17-12.6,28.52-19.23,9.23-6.8,18.38-13.71,27.26-21s17.54-14.81,25.94-22.66a449.93,449.93,0,0,0,46.94-50.71c14.24-18.25,27.15-37.85,36.59-59.78a147.18,147.18,0,0,0,6-17.06A101.47,101.47,0,0,0,821.76,221,64.75,64.75,0,0,0,820.84,201.59Z" transform="translate(-364.08 -164.42)"/><path class="cls-2" d="M851.48,347.26a67.55,67.55,0,0,0-7.84-18.36,103.87,103.87,0,0,0-11.29-15.19,147.74,147.74,0,0,0-13-13,226.15,226.15,0,0,0-28.68-21.22,312.14,312.14,0,0,0-30.66-17,437,437,0,0,0-64.56-25.09q-16.51-5-33.28-8.91c-11.18-2.59-22.43-4.77-33.71-6.76-11.31-1.77-22.65-3.39-34.05-4.57s-22.84-2-34.31-2.38a435.37,435.37,0,0,0-68.95,2.77c-22.94,2.93-45.89,7.81-68,16.92a145.34,145.34,0,0,0-16.28,8.05,101,101,0,0,0-15.37,10.71,65.8,65.8,0,0,0-13.07,14.83,47.51,47.51,0,0,0-7.2,19.61,46.72,46.72,0,0,0,2.33,20.47,63.44,63.44,0,0,0,9,16.95c7.32,10,16.28,17.83,25.54,24.83,16.21,11.87,33.7,21,51.6,28.91q-1.12-3.38-2.1-6.82-8.65-4.72-17-10a208.66,208.66,0,0,1-26.64-19.8c-8.17-7.31-15.6-15.49-21-24.47s-8-18.87-6.08-27.47,8.15-15.83,16.18-21.43,17.7-9.63,27.61-12.82c20-6.2,41.49-9,63-10.33a515.25,515.25,0,0,1,64.92.68c10.84.65,21.66,1.86,32.47,3.1s21.58,2.87,32.33,4.65c21.49,3.6,42.82,8.19,63.83,13.83,10.47,2.93,21,5.84,31.24,9.33s20.5,7.13,30.52,11.24c20,8.26,39.43,17.93,56.51,30.34,8.4,6.27,16.29,13.22,22.22,21.15s9.55,16.78,8.75,25.54-6.4,17.27-14.19,24S804.85,401.72,794.87,406a228.55,228.55,0,0,1-48.24,13.62q-2.06,3.07-4.23,6c18.69-1.65,37.38-4.61,55.73-10.36,10.94-3.6,21.85-8.12,31.89-15.21a61.87,61.87,0,0,0,13.73-13.17,46.14,46.14,0,0,0,8.53-18.68A48.11,48.11,0,0,0,851.48,347.26Z" transform="translate(-364.08 -164.42)"/><path class="cls-3" d="M533.94,406h-49L515.1,248.84h20.57L509,387H537.5Z" transform="translate(-364.08 -164.42)"/><path class="cls-3" d="M670.09,406H650.17L650,346.24h-.44L624.12,406H605.3l34.59-79.46-3.31-77.7h20.14l.38,58h.44l24.13-58h19l-33.25,77.7Z" transform="translate(-364.08 -164.42)"/><path class="cls-3" d="M683,406l30.19-157.16h20.57L703.58,406Z" transform="translate(-364.08 -164.42)"/><polygon class="cls-3" points="189.7 241.58 232.9 241.58 236.45 222.54 210.19 222.54 189.7 241.58"/><polygon class="cls-3" points="259.53 103.46 263.09 84.42 211.87 84.42 183.43 232.49 208.39 209.3 216.01 170.22 243.15 170.22 246.7 151.18 219.56 151.18 228.89 103.46 259.53 103.46"/><path class="cls-2" d="M382.77,549.23q6,1.37,5.73,5.11l-.78,11.21q-.4,6.66-8.79,6.66H364.08L367,527.5h12.64q9.81,0,9.26,8.1l-.55,8.59q-.24,3.86-5.57,4.74Zm-11,17.57h5.57q2.91,0,3.06-1.93L381,555q.24-3.18-4.16-3.18H372.8Zm1.33-20.43h3.45q4.24,0,4.47-3.24l.47-7q.24-3.24-3.06-3.24h-4.4Z" transform="translate(-364.08 -164.42)"/><path class="cls-2" d="M424.29,527.5l-2.36,36.25q-.55,8.47-9.5,8.47h-6.2q-8.87,0-8.32-8.53l2.36-36.19h7.38l-2.35,36.37q-.24,2.93,3,2.93h3.06a2.86,2.86,0,0,0,3.22-2.93l2.35-36.37Z" transform="translate(-364.08 -164.42)"/><path class="cls-2" d="M448.47,539.52l.23-3.92q.24-2.68-3-2.68h-1.18q-3.14,0-3.37,2.68l-.47,7.41a1.84,1.84,0,0,0,.51,1.68,15,15,0,0,0,1.92,1.12l6.75,3.05a28.59,28.59,0,0,1,3.18,1.65,4.51,4.51,0,0,1,1.41,1.43,6.07,6.07,0,0,1,.35,3.21l-.63,9.53q-.47,7.54-9.42,7.54H440.3q-8.87,0-8.32-8.22l.16-2.24h7.38l-.23,2.43q-.16,2.62,3.14,2.62h1.33q2.9,0,3.06-2.62l.55-7.6a1.84,1.84,0,0,0-.51-1.68,15.14,15.14,0,0,0-1.92-1.12l-6.75-3.18a20.28,20.28,0,0,1-3.26-1.68,3.62,3.62,0,0,1-1.37-1.78,7.49,7.49,0,0,1-.31-2.83l.63-9.16q.47-7.66,9.34-7.66h4.55q8.87,0,8.4,7.66l-.31,4.36Z" transform="translate(-364.08 -164.42)"/><path class="cls-2" d="M463.85,572.22l2.9-44.72h7.38l-2.9,44.72Z" transform="translate(-364.08 -164.42)"/><path class="cls-2" d="M498.86,549.11l1.41-21.61h7.38l-2.9,44.72h-7.38l.55-8.91-6.59-20.37-1.88,29.28h-7.38L485,527.5h7.38Z" transform="translate(-364.08 -164.42)"/><path class="cls-2" d="M515.58,572.22l2.9-44.72h18.37l-.32,5.42h-11l-.94,13.58h9.73l-.32,5.42h-9.73l-1,14.89h11l-.32,5.42Z" transform="translate(-364.08 -164.42)"/><path class="cls-2" d="M559.38,539.52l.23-3.92q.24-2.68-3-2.68h-1.18q-3.14,0-3.37,2.68l-.47,7.41a1.84,1.84,0,0,0,.51,1.68,15,15,0,0,0,1.92,1.12l6.75,3.05a28.59,28.59,0,0,1,3.18,1.65,4.51,4.51,0,0,1,1.41,1.43,6.07,6.07,0,0,1,.35,3.21l-.63,9.53q-.47,7.54-9.42,7.54h-4.47q-8.87,0-8.32-8.22l.16-2.24h7.38l-.23,2.43q-.16,2.62,3.14,2.62h1.33q2.9,0,3.06-2.62l.55-7.6a1.84,1.84,0,0,0-.51-1.68,15.14,15.14,0,0,0-1.92-1.12l-6.75-3.18a20.28,20.28,0,0,1-3.26-1.68,3.62,3.62,0,0,1-1.37-1.78,7.49,7.49,0,0,1-.31-2.83l.63-9.16q.47-7.66,9.34-7.66h4.55q8.87,0,8.4,7.66l-.31,4.36Z" transform="translate(-364.08 -164.42)"/><path class="cls-2" d="M591,539.52l.23-3.92q.24-2.68-3-2.68h-1.18q-3.14,0-3.37,2.68l-.47,7.41a1.84,1.84,0,0,0,.51,1.68,15,15,0,0,0,1.92,1.12l6.75,3.05a28.59,28.59,0,0,1,3.18,1.65,4.51,4.51,0,0,1,1.41,1.43,6.07,6.07,0,0,1,.35,3.21l-.63,9.53q-.47,7.54-9.42,7.54h-4.47q-8.87,0-8.32-8.22l.16-2.24h7.38l-.23,2.43q-.16,2.62,3.14,2.62h1.33q2.9,0,3.06-2.62l.55-7.6a1.84,1.84,0,0,0-.51-1.68,15.14,15.14,0,0,0-1.92-1.12l-6.75-3.18a20.28,20.28,0,0,1-3.26-1.68,3.62,3.62,0,0,1-1.37-1.78,7.49,7.49,0,0,1-.31-2.83l.63-9.16q.47-7.66,9.34-7.66h4.55q8.87,0,8.4,7.66l-.31,4.36Z" transform="translate(-364.08 -164.42)"/><path class="cls-2" d="M462,627.58l2.9-44.72h7.38l-2.9,44.72Z" transform="translate(-364.08 -164.42)"/><path class="cls-2" d="M497,604.47l1.41-21.61h7.38l-2.9,44.72h-7.38l.55-8.91-6.59-20.37-1.88,29.28h-7.38l2.91-44.72h7.38Z" transform="translate(-364.08 -164.42)"/><path class="cls-2" d="M528.11,588.28l-2.59,39.3h-7.38l2.59-39.3h-7.06l.31-5.42h21.51l-.31,5.42Z" transform="translate(-364.08 -164.42)"/><path class="cls-2" d="M540.75,627.58l2.9-44.72H562l-.32,5.42h-11l-.94,13.58h9.73l-.32,5.42h-9.73l-1,14.89h11l-.32,5.42Z" transform="translate(-364.08 -164.42)"/><path class="cls-2" d="M571.21,582.86h14.44q8.48,0,8,7.66l-.71,11q-.4,5.86-4.94,7.41l4,18.62h-7l-3.69-18.06h-4.47l-1.18,18.06H568.3Zm6,21.55H582q3.29,0,3.53-3.24l.63-9.65q.24-3.24-3.06-3.24h-4.87Z" transform="translate(-364.08 -164.42)"/><path class="cls-2" d="M604.18,582.86H617.6q8.95,0,8.48,7.66l-.86,13.27q-.55,7.6-9.42,7.6h-6.12l-1,16.19h-7.38ZM610.06,606h4.71q2.91,0,3.06-2.62l.87-12.46q.16-2.62-3.14-2.62h-4.32Z" transform="translate(-364.08 -164.42)"/><path class="cls-2" d="M636.36,582.86H650.8q8.48,0,8,7.66l-.71,11q-.4,5.86-4.94,7.41l4,18.62h-7l-3.69-18.06H642l-1.18,18.06h-7.38Zm6,21.55h4.87q3.29,0,3.53-3.24l.63-9.65q.24-3.24-3.06-3.24h-4.87Z" transform="translate(-364.08 -164.42)"/><path class="cls-2" d="M666.42,627.58l2.9-44.72H687.7l-.32,5.42h-11l-.94,13.58h9.73l-.32,5.42h-9.73l-1,14.89h11l-.32,5.42Z" transform="translate(-364.08 -164.42)"/><path class="cls-2" d="M708.34,588.28l-2.59,39.3h-7.38l2.59-39.3H693.9l.31-5.42h21.51l-.31,5.42Z" transform="translate(-364.08 -164.42)"/><path class="cls-2" d="M728,627.58h-7.38L723,590.52q.47-7.66,9.34-7.66h5.49q8.87,0,8.4,7.66l-2.43,37.06h-7.38l1-16.38H729Zm9.89-21.8,1-14.89q.16-2.62-3.06-2.62h-2q-3.22,0-3.37,2.62l-1,14.89Z" transform="translate(-364.08 -164.42)"/><path class="cls-2" d="M768.63,588.28,766,627.58h-7.38l2.59-39.3h-7.06l.31-5.42H776l-.31,5.42Z" transform="translate(-364.08 -164.42)"/><path class="cls-2" d="M781.26,627.58l2.91-44.72h7.38l-2.9,44.72Z" transform="translate(-364.08 -164.42)"/><path class="cls-2" d="M808,627.58q-8.95,0-8.48-7.6l2-29.46q.47-7.66,9.34-7.66h7.06q8.87,0,8.4,7.66l-2,29.46q-.47,7.6-9.42,7.6Zm2-5.42h3.77q3,0,3.14-2.62l2-28.65q.16-2.62-3.14-2.62h-3.53q-3.22,0-3.37,2.62l-2,28.65Q806.77,622.16,810.07,622.16Z" transform="translate(-364.08 -164.42)"/><path class="cls-2" d="M851.13,604.47l1.41-21.61h7.38L857,627.58h-7.38l.55-8.91-6.59-20.37-1.89,29.28h-7.38l2.9-44.72h7.38Z" transform="translate(-364.08 -164.42)"/><path class="cls-2" d="M646.94,572.94a28.07,28.07,0,0,0-3.11-5.67,18,18,0,0,1-2.19,2.18,19.18,19.18,0,0,1-5.6,3.27,17.73,17.73,0,0,1-6.26,1.15,14.85,14.85,0,0,1-5.89-1.15,13,13,0,0,1-4.61-3.27,11.57,11.57,0,0,1-2.74-4.88,13.89,13.89,0,0,1-.32-5.8,13.52,13.52,0,0,1,5-8.57q.78-.59,1.58-1.12t1.63-1a19.75,19.75,0,0,1-2.47-4.39,9.48,9.48,0,0,1-.51-5,13.25,13.25,0,0,1,1.81-5,16.26,16.26,0,0,1,3.51-4.09,16.88,16.88,0,0,1,4.7-2.77,14.59,14.59,0,0,1,5.38-1,12.63,12.63,0,0,1,5.11,1,10.93,10.93,0,0,1,3.88,2.77,11.1,11.1,0,0,1,2.61,9.07h-8.31a4.14,4.14,0,0,0-1-3.5,4.41,4.41,0,0,0-3.49-1.45,5.91,5.91,0,0,0-3.88,1.45,5.51,5.51,0,0,0-2,3.5,3.33,3.33,0,0,0,.26,1.78,8.55,8.55,0,0,0,1.11,1.88,19.81,19.81,0,0,0,1.63,1.88q.9.92,1.81,1.78t1.89,1.71q1,.86,2.09,1.78,1.47,1.32,3.12,2.77l.86-1.39a9.89,9.89,0,0,1,1-1.32A20.63,20.63,0,0,1,654,542.93l1.44,7.59q-6.43,1.85-7.53,7.92a39.68,39.68,0,0,1,4.12,5.38,36.69,36.69,0,0,1,2.86,5.51Zm-16-7a8.48,8.48,0,0,0,4.52-1.29,9,9,0,0,0,3.22-3.33q-1.58-1.52-3.14-2.9t-3.1-2.7l-1.2-1q-.59-.49-1.13-1a14.12,14.12,0,0,0-4.33,2.61,4.61,4.61,0,0,0-1.27,2.47,6.16,6.16,0,0,0,1.43,5.08,5.94,5.94,0,0,0,2.13,1.55A7,7,0,0,0,630.94,566Z" transform="translate(-364.08 -164.42)"/></svg>