<svg id="u" xmlns="http://www.w3.org/2000/svg" viewBox="0 0 555.06 391.99"><defs><style>.cls-1{fill:#f6f6fb;}.cls-2{fill:#c23241;}.cls-3{fill:#353436;}</style></defs><title>LU_Logo</title><circle class="cls-1" cx="425.96" cy="163.45" r="63.07"/><path class="cls-2" d="M682.48,359.5a71,71,0,0,1,70.95-70.95c.51,0,1,0,1.53,0a162.42,162.42,0,0,0-80.68-77.48h0A161.91,161.91,0,0,0,447.52,359.46c0,5.36.28,10.66.79,15.89.13,1.31.3,2.6.46,3.9.14,1.13.27,2.27.43,3.39.2,1.4.43,2.79.67,4.17q.25,1.44.51,2.88c.28,1.48.57,2.95.89,4.41.17.77.35,1.53.53,2.29.37,1.6.75,3.2,1.17,4.78A162,162,0,0,0,508.52,486c9.18-3,18.89-6.65,29.46-11.17a533,533,0,0,0,57-29.19c18.21-10.68,36.42-22.57,54.12-35.32,7.16-5.17,16.57-12.07,25.79-19.46,3.88-3.1,7.56-6.06,11.15-9A70.83,70.83,0,0,1,682.48,359.5Z" transform="translate(-327.47 -196.05)"/><path class="cls-2" d="M755,430.41c-.51,0-1,0-1.53,0A70.61,70.61,0,0,1,713.31,418c-3.17,2.72-6.41,5.46-9.81,8.26-7.79,6.36-16.28,12.89-27.53,21.18-10.7,7.58-20.12,13.93-28.9,19.48-9.63,6.1-19.74,12-30.06,17.66a457.35,457.35,0,0,1-60.83,27.77,161.93,161.93,0,0,0,114.11-2.87l73.3,29.2-12.22-72.8A162.45,162.45,0,0,0,755,430.41Z" transform="translate(-327.47 -196.05)"/><path class="cls-3" d="M708.54,212.66A208.89,208.89,0,0,1,741,207.39c10.81-.77,21.69-.42,31.65,1.94s18.65,7.27,23.2,14.54,5.09,16.65,3.25,26.18-5.93,19.14-10.76,28.34c-2.76,5.12-5.8,10.13-9,15.05a70.89,70.89,0,0,1,20.41,12.32c3.14-5.79,6.08-11.73,8.72-17.87a147,147,0,0,0,6-17A101.36,101.36,0,0,0,818,252.62a64.68,64.68,0,0,0-.92-19.44,45.22,45.22,0,0,0-8.37-18.58A44,44,0,0,0,793,202.2a61.18,61.18,0,0,0-18-5.29c-12.05-1.66-23.78-.7-35.13,1.05-19.93,3.38-38.87,9.6-57.19,17,2,1,4,2.09,5.94,3.19Q698.51,215.09,708.54,212.66Z" transform="translate(-327.47 -196.05)"/><path class="cls-3" d="M688.76,388.68q-4.72,3.84-9.46,7.64c-8.49,6.81-17.25,13.3-26.08,19.68q-26.52,19.1-54.67,35.67a537.87,537.87,0,0,1-57.83,29.59c-19.8,8.46-40.22,15.6-60.84,19.18-10.26,1.65-20.61,2.47-30.27,1.23s-18.3-4.75-23.75-11.34-7.32-16.4-6.44-26.55,4-20.61,8.17-30.62a231.18,231.18,0,0,1,23.3-41.29q-.74-3.64-1.31-7.33c-11.46,13.77-22,28.39-30.67,44.52-5.28,10.21-9.9,21-12.15,33a61.25,61.25,0,0,0-.69,18.76,44.12,44.12,0,0,0,6.79,18.88,45.31,45.31,0,0,0,15,13.85,64.79,64.79,0,0,0,18.17,7A101.49,101.49,0,0,0,464.46,523c3.07.23,6.06.12,9.1.14s6-.28,9-.44A226.34,226.34,0,0,0,517.41,517a316.08,316.08,0,0,0,33.38-10,446.13,446.13,0,0,0,62.9-28.46q15.13-8.23,29.67-17.43c9.69-6.13,19.15-12.59,28.49-19.21,9.22-6.79,18.36-13.7,27.24-20.95,2.88-2.37,5.71-4.81,8.55-7.23A71.15,71.15,0,0,1,688.76,388.68Z" transform="translate(-327.47 -196.05)"/><path class="cls-3" d="M772.4,309.6,757.88,393q-1.25,6.71-6.68,6.71H745.8l-12.1,11.24a17.27,17.27,0,0,0,6.71,1.17h11.28q16.27,0,19.65-19.41l14.48-83.07Z" transform="translate(-327.47 -196.05)"/><path class="cls-3" d="M740.84,394.48A13,13,0,0,1,741,393l14.52-83.36H742.14l-14.46,82.93q-1.5,8.63.8,13.44Z" transform="translate(-327.47 -196.05)"/><path class="cls-3" d="M519.55,430.72H477.74l25.74-134H521L498.31,414.48h24.26Z" transform="translate(-327.47 -196.05)"/><path class="cls-3" d="M635.64,430.72h-17l-.12-51h-.37l-21.72,51H580.39L609.89,363l-2.82-66.26h17.17l.33,49.46h.37l20.58-49.46h16.24L633.41,363Z" transform="translate(-327.47 -196.05)"/><path class="cls-3" d="M646.65,430.72l25.74-134h17.54l-25.74,134Z" transform="translate(-327.47 -196.05)"/><polygon class="cls-3" points="209 234.67 245.84 234.67 248.87 218.43 226.47 218.43 209 234.67"/><polygon class="cls-3" points="268.55 116.89 271.58 100.65 227.9 100.65 203.65 226.92 224.94 207.15 231.43 173.82 254.57 173.82 257.6 157.58 234.46 157.58 242.42 116.89 268.55 116.89"/><path class="cls-2" d="M766.84,309.6,752.32,393q-1.25,6.71-6.68,6.71h-5.41l-12.1,11.24a17.27,17.27,0,0,0,6.71,1.17h11.28q16.27,0,19.65-19.41l14.48-83.07Z" transform="translate(-327.47 -196.05)"/><path class="cls-2" d="M735.28,394.48a13,13,0,0,1,.2-1.53L750,309.6H736.58l-14.46,82.93q-1.5,8.63.8,13.44Z" transform="translate(-327.47 -196.05)"/><path class="cls-1" d="M514,430.72H472.18l25.74-134h17.54L492.75,414.48H517Z" transform="translate(-327.47 -196.05)"/><path class="cls-1" d="M630.08,430.72h-17l-.12-51h-.37l-21.72,51H574.83L604.33,363l-2.82-66.26h17.17l.33,49.46h.37L640,296.71h16.24L627.84,363Z" transform="translate(-327.47 -196.05)"/><path class="cls-1" d="M641.09,430.72l25.74-134h17.54l-25.74,134Z" transform="translate(-327.47 -196.05)"/><polygon class="cls-1" points="203.43 234.67 240.28 234.67 243.3 218.43 220.91 218.43 203.43 234.67"/><polygon class="cls-1" points="262.99 116.89 266.02 100.65 222.34 100.65 198.09 226.92 219.37 207.15 225.87 173.82 249.01 173.82 252.04 157.58 228.9 157.58 236.85 116.89 262.99 116.89"/><path class="cls-3" d="M343.22,580.79l-.16,2q-.33,5.27-6.48,5.27h-3.27q-6.15,0-5.83-5.27l1.36-20.48q.33-5.27,6.48-5.27h3.27q6.15,0,5.83,5.27l-.22,3.5h-5.12l.22-3.2q.11-1.81-2.18-1.81h-1q-2,0-2.12,1.81l-1.36,19.87q-.11,1.81,1.91,1.81h1.31q2,0,2.12-1.81l.16-1.68Z" transform="translate(-327.47 -196.05)"/><path class="cls-3" d="M351.49,557h10q5.88,0,5.55,5.31l-.49,7.65q-.27,4.06-3.43,5.14L365.92,588h-4.84l-2.56-12.53h-3.1L354.6,588h-5.12ZM355.63,572H359a2.17,2.17,0,0,0,2.45-2.25l.44-6.7q.16-2.25-2.12-2.25h-3.38Z" transform="translate(-327.47 -196.05)"/><path class="cls-3" d="M372.34,588l2-31H387.1l-.22,3.76h-7.62l-.65,9.42h6.75l-.22,3.76h-6.75l-.71,10.32h7.62l-.22,3.76Z" transform="translate(-327.47 -196.05)"/><path class="cls-3" d="M396.3,588h-5.12l1.69-25.7q.33-5.31,6.48-5.31h3.81q6.15,0,5.83,5.31L407.3,588h-5.12l.71-11.36H397Zm6.86-15.12.71-10.32q.11-1.81-2.12-1.81h-1.42q-2.23,0-2.34,1.81l-.71,10.32Z" transform="translate(-327.47 -196.05)"/><path class="cls-3" d="M424.5,560.78,422.7,588h-5.12l1.8-27.26h-4.9l.22-3.76h14.92l-.22,3.76Z" transform="translate(-327.47 -196.05)"/><path class="cls-3" d="M433.27,588l2-31h5.12l-2,31Z" transform="translate(-327.47 -196.05)"/><path class="cls-3" d="M464.51,557l-8.22,31h-6.1L446,557h5.12l2.61,23.67L459.4,557Z" transform="translate(-327.47 -196.05)"/><path class="cls-3" d="M467.62,588l2-31h12.74l-.22,3.76h-7.62l-.65,9.42h6.75l-.22,3.76h-6.75L473,584.28h7.62l-.22,3.76Z" transform="translate(-327.47 -196.05)"/><path class="cls-3" d="M513.79,580.79l-.16,2q-.33,5.27-6.48,5.27h-3.27q-6.15,0-5.83-5.27l1.36-20.48q.33-5.27,6.48-5.27h3.27q6.15,0,5.83,5.27l-.22,3.5h-5.12l.22-3.2q.11-1.81-2.18-1.81h-1q-2,0-2.12,1.81l-1.36,19.87q-.11,1.81,1.91,1.81h1.31q2,0,2.12-1.81l.16-1.68Z" transform="translate(-327.47 -196.05)"/><path class="cls-3" d="M525.93,588q-6.21,0-5.88-5.27l1.36-20.43q.33-5.31,6.48-5.31h4.9q6.15,0,5.83,5.31l-1.36,20.43q-.33,5.27-6.53,5.27Zm1.42-3.76H530q2.07,0,2.18-1.81l1.36-19.87q.11-1.81-2.18-1.81h-2.45q-2.23,0-2.34,1.81l-1.36,19.87Q525.05,584.28,527.34,584.28Z" transform="translate(-327.47 -196.05)"/><path class="cls-3" d="M555.82,572l1-15h5.12l-2,31h-5.12l.38-6.18-4.57-14.13L549.28,588h-5.12l2-31h5.12Z" transform="translate(-327.47 -196.05)"/><path class="cls-3" d="M577.38,560.78,575.58,588h-5.12l1.8-27.26h-4.9l.22-3.76h14.92l-.22,3.76Z" transform="translate(-327.47 -196.05)"/><path class="cls-3" d="M586.14,588l2-31H600.9l-.22,3.76h-7.62l-.65,9.42h6.75l-.22,3.76h-6.75l-.71,10.32h7.62l-.22,3.76Z" transform="translate(-327.47 -196.05)"/><path class="cls-3" d="M616.9,572l1-15H623l-2,31h-5.12l.38-6.18-4.57-14.13L610.37,588h-5.12l2-31h5.12Z" transform="translate(-327.47 -196.05)"/><path class="cls-3" d="M638.46,560.78,636.66,588h-5.12l1.8-27.26h-4.9l.22-3.76h14.92l-.22,3.76Z" transform="translate(-327.47 -196.05)"/><path class="cls-3" d="M668.46,560.78,666.66,588h-5.12l1.8-27.26h-4.9l.22-3.76h14.92l-.22,3.76Z" transform="translate(-327.47 -196.05)"/><path class="cls-3" d="M679.24,557h10q5.88,0,5.55,5.31l-.49,7.65q-.27,4.06-3.43,5.14L693.67,588h-4.84l-2.56-12.53h-3.1L682.34,588h-5.12ZM683.38,572h3.38a2.17,2.17,0,0,0,2.45-2.25l.44-6.7q.16-2.25-2.12-2.25h-3.38Z" transform="translate(-327.47 -196.05)"/><path class="cls-3" d="M704.94,588h-5.12l1.69-25.7Q701.83,557,708,557h3.81q6.15,0,5.83,5.31L715.93,588h-5.12l.71-11.36h-5.88Zm6.86-15.12.71-10.32q.11-1.81-2.12-1.81H709q-2.23,0-2.34,1.81l-.71,10.32Z" transform="translate(-327.47 -196.05)"/><path class="cls-3" d="M734.82,572l1-15h5.12l-2,31h-5.12l.38-6.18-4.57-14.13L728.29,588h-5.12l2-31h5.12Z" transform="translate(-327.47 -196.05)"/><path class="cls-3" d="M757.69,565.36l.16-2.72q.16-1.86-2.07-1.86H755q-2.18,0-2.34,1.86l-.33,5.14a1.27,1.27,0,0,0,.35,1.17,10.41,10.41,0,0,0,1.33.78l4.68,2.12a19.9,19.9,0,0,1,2.2,1.14,3.15,3.15,0,0,1,1,1,4.22,4.22,0,0,1,.25,2.22l-.44,6.61q-.33,5.23-6.53,5.23H752q-6.15,0-5.77-5.7l.11-1.56h5.12l-.16,1.68q-.11,1.81,2.18,1.81h.93q2,0,2.12-1.81l.38-5.27a1.28,1.28,0,0,0-.35-1.17,10.55,10.55,0,0,0-1.33-.78l-4.68-2.2a14.14,14.14,0,0,1-2.26-1.17,2.5,2.5,0,0,1-1-1.23,5.17,5.17,0,0,1-.22-2l.44-6.35Q747.89,557,754,557h3.16q6.15,0,5.83,5.31l-.22,3Z" transform="translate(-327.47 -196.05)"/><path class="cls-3" d="M780.56,588h-12.2l2-31h5.12l-1.8,27.26h7.08Z" transform="translate(-327.47 -196.05)"/><path class="cls-3" d="M791,588h-5.12l1.69-25.7q.33-5.31,6.48-5.31h3.81q6.15,0,5.83,5.31L802,588h-5.12l.71-11.36h-5.88Zm6.86-15.12.71-10.32q.11-1.81-2.12-1.81H795q-2.23,0-2.34,1.81L792,572.92Z" transform="translate(-327.47 -196.05)"/><path class="cls-3" d="M819.21,560.78,817.41,588H812.3l1.8-27.26h-4.9l.22-3.76h14.92l-.22,3.76Z" transform="translate(-327.47 -196.05)"/><path class="cls-3" d="M828,588l2-31h5.12l-2,31Z" transform="translate(-327.47 -196.05)"/><path class="cls-3" d="M846.54,588q-6.21,0-5.88-5.27L842,562.34q.33-5.31,6.48-5.31h4.9q6.15,0,5.83,5.31l-1.36,20.43q-.33,5.27-6.53,5.27Zm1.42-3.76h2.61q2.07,0,2.18-1.81l1.36-19.87q.11-1.81-2.18-1.81h-2.45q-2.23,0-2.34,1.81l-1.36,19.87Q845.67,584.28,848,584.28Z" transform="translate(-327.47 -196.05)"/><path class="cls-3" d="M876.43,572l1-15h5.12l-2,31h-5.12l.38-6.18-4.57-14.13L869.9,588h-5.12l2-31h5.12Z" transform="translate(-327.47 -196.05)"/></svg>